<svg width="74" height="44" viewBox="0 0 74 44" fill="none" xmlns="http://www.w3.org/2000/svg">
<rect x="1.83479" y="1" width="71" height="42" rx="11" fill="#2C2D2E"/>
<path d="M22.6145 27V15.8H27.0945C27.6385 15.8 28.1398 15.896 28.5985 16.088C29.0571 16.2693 29.4518 16.5253 29.7825 16.856C30.1238 17.176 30.3851 17.5547 30.5665 17.992C30.7585 18.4293 30.8545 18.8987 30.8545 19.4C30.8545 19.9013 30.7585 20.3707 30.5665 20.808C30.3851 21.2453 30.1238 21.6293 29.7825 21.96C29.4518 22.28 29.0571 22.536 28.5985 22.728C28.1398 22.9093 27.6385 23 27.0945 23H24.3745V27H22.6145ZM24.3745 17.4V21.4H27.0945C27.3718 21.4 27.6331 21.352 27.8785 21.256C28.1238 21.1493 28.3371 21.0053 28.5185 20.824C28.6998 20.6427 28.8385 20.4293 28.9345 20.184C29.0411 19.9387 29.0945 19.6773 29.0945 19.4C29.0945 19.1227 29.0411 18.8613 28.9345 18.616C28.8385 18.3707 28.6998 18.1573 28.5185 17.976C28.3371 17.7947 28.1238 17.656 27.8785 17.56C27.6331 17.4533 27.3718 17.4 27.0945 17.4H24.3745ZM33.177 15.8H36.937C37.7583 15.8 38.521 15.9493 39.225 16.248C39.9396 16.5467 40.5583 16.952 41.081 17.464C41.6143 17.976 42.0303 18.5733 42.329 19.256C42.6276 19.928 42.777 20.6427 42.777 21.4C42.777 22.1573 42.6276 22.8773 42.329 23.56C42.0303 24.232 41.6143 24.824 41.081 25.336C40.5583 25.848 39.9396 26.2533 39.225 26.552C38.521 26.8507 37.7583 27 36.937 27H33.177V15.8ZM36.937 25.4C37.513 25.4 38.0516 25.2987 38.553 25.096C39.0543 24.8827 39.4863 24.6 39.849 24.248C40.2116 23.8853 40.4943 23.4587 40.697 22.968C40.9103 22.4773 41.017 21.9547 41.017 21.4C41.017 20.8347 40.9103 20.312 40.697 19.832C40.4943 19.3413 40.2116 18.92 39.849 18.568C39.4863 18.2053 39.0543 17.9227 38.553 17.72C38.0516 17.5067 37.513 17.4 36.937 17.4H34.937V25.4H36.937ZM53.0951 15.8V17.48H47.0151V20.68H51.8151V22.36H47.0151V27H45.2551V15.8H53.0951Z" fill="white"/>
<rect x="1.83479" y="1" width="71" height="42" rx="11" stroke="#2C2D2E" stroke-width="2"/>
</svg>
