<svg width="23" height="19" viewBox="0 0 23 19" fill="none" xmlns="http://www.w3.org/2000/svg">
<path d="M22.3476 2.24658C21.5183 2.63014 20.6322 2.88128 19.7069 3.00457C20.6584 2.41096 21.383 1.47945 21.7234 0.356164C20.8374 0.908676 19.8597 1.2968 18.8165 1.51598C17.9785 0.579909 16.7782 0 15.4731 0C12.9372 0 10.8945 2.15525 10.8945 4.79452C10.8945 5.17352 10.925 5.53881 10.9992 5.88584C7.18877 5.69406 3.81917 3.78082 1.55386 0.872146C1.15666 1.58904 0.92533 2.41096 0.92533 3.2968C0.92533 4.9589 1.74154 6.42922 2.95931 7.27854C2.22166 7.26484 1.50148 7.0411 0.890412 6.6895C0.890412 6.7032 0.890412 6.72146 0.890412 6.74429C0.890412 9.07306 2.47919 11.0091 4.56118 11.4521C4.19017 11.5571 3.77989 11.6119 3.36087 11.6119C3.06843 11.6119 2.77162 11.5936 2.49228 11.5297C3.08589 13.4292 4.77069 14.8219 6.77411 14.8676C5.21589 16.1416 3.23429 16.9132 1.09556 16.9132C0.720186 16.9132 0.357911 16.895 0 16.8493C2.02962 18.2192 4.4346 19 7.02727 19C15.46 19 20.0692 11.6941 20.0692 5.36073C20.0692 5.15068 20.0605 4.94521 20.0517 4.73973C20.9596 4.06393 21.7234 3.21918 22.3476 2.24658Z" fill="white"/>
</svg>
