<svg width="28" height="17" viewBox="0 0 28 17" fill="none" xmlns="http://www.w3.org/2000/svg">
<path fill-rule="evenodd" clip-rule="evenodd" d="M27.2132 1.39452C27.4159 0.748669 27.2132 0.279435 26.3189 0.279435H23.3463C22.595 0.279435 22.2492 0.69153 22.0465 1.13133C22.0465 1.13133 20.5168 4.88693 18.3806 7.32141C17.689 8.02613 17.3704 8.25988 16.9957 8.25988C16.793 8.25988 16.534 8.02613 16.534 7.38028V1.36508C16.534 0.603224 16.3024 0.25 15.667 0.25H10.9909C10.5292 0.25 10.2413 0.603224 10.2413 0.954717C10.2413 1.68887 11.3094 1.86375 11.4236 3.91903V8.37762C11.4236 9.34552 11.2515 9.52213 10.875 9.52213C9.86487 9.52213 7.41185 5.7371 5.94004 1.42395C5.65045 0.573789 5.36256 0.25 4.61132 0.25H1.60978C0.744406 0.25 0.599609 0.662095 0.599609 1.10189C0.599609 1.89319 1.60978 5.88427 5.30464 11.1653C7.75766 14.7737 11.2515 16.7113 14.3979 16.7113C16.3024 16.7113 16.534 16.2698 16.534 15.5373V12.8085C16.534 11.9289 16.7061 11.7817 17.3125 11.7817C17.7452 11.7817 18.5254 12.0155 20.2868 13.747C22.3071 15.8005 22.653 16.7407 23.779 16.7407H26.7515C27.6186 16.7407 28.0223 16.2992 27.7907 15.449C27.5317 14.5989 26.5505 13.366 25.2797 11.8995C24.5864 11.077 23.5473 10.168 23.2304 9.72818C22.7977 9.14121 22.9136 8.90572 23.2304 8.37762C23.2015 8.37762 26.8384 3.15544 27.2132 1.39452Z" fill="white"/>
</svg>
